{"asset":{"version":"2.0","generator":"THREE.GLTFExporter"},"scenes":[{"nodes":[0]}],"scene":0,"nodes":[{"matrix":[0.30480000376701355,0,0,0,0,0.30480000376701355,0,0,0,0,0.30480000376701355,0,537.8905029296875,26.985198974609375,-498.98394775390625,1],"name":"120202铺装单幅右-0020_120202铺装单幅右-0020_640399","extras":{"name":"120202铺装单幅右-0020 120202铺装单幅右-0020 [640399]"},"mesh":0}],"bufferViews":[{"buffer":0,"byteOffset":0,"byteLength":100284,"target":34962,"byteStride":12},{"buffer":0,"byteOffset":100284,"byteLength":100284,"target":34962,"byteStride":12},{"buffer":0,"byteOffset":200568,"byteLength":66856,"target":34962,"byteStride":8},{"buffer":0,"byteOffset":267424,"byteLength":77220,"target":34963}],"buffers":[{"byteLength":344644,"uri":"data:application/octet-stream;base64,"}],"accessors":[{"bufferView":0,"componentType":5126,"count":8357,"max":[0,8.907404899597168,706.298095703125],"min":[-1416.310302734375,-1.1154855489730835,-48.9683952331543],"type":"VEC3"},{"bufferView":1,"componentType":5126,"count":8357,"max":[0.8779746890068054,0.999788761138916,0.9049518704414368],"min":[-0.9049447774887085,-0.9997886419296265,-0.9049574136734009],"type":"VEC3"},{"bufferView":2,"componentType":5126,"count":8357,"max":[780.8504028320312,217.54220581054688],"min":[-780.8504028320312,-215.5421600341797],"type":"VEC2"},{"bufferView":3,"componentType":5123,"count":38610,"max":[8356],"min":[0],"type":"SCALAR"}],"materials":[{"pbrMetallicRoughness":{"metallicFactor":1,"roughnessFactor":1}}],"meshes":[{"primitives":[{"mode":4,"attributes":{"POSITION":0,"NORMAL":1,"TEXCOORD_0":2},"indices":3,"material":0}]}]}