{"accessors":[{"name":"Node-Mesh_0_positions","componentType":5126,"count":72,"min":[-2651.669921875,-11369.7998046875,-100],"max":[-2411.669921875,-11129.7998046875,6600],"type":"VEC3","bufferView":0,"byteOffset":0},{"name":"Node-Mesh_0_indices","componentType":5123,"count":420,"min":[0],"max":[71],"type":"SCALAR","bufferView":1,"byteOffset":0}],"asset":{"generator":"obj2gltf","version":"2.0"},"buffers":[{"name":"1","byteLength":1704,"uri":"data:application/octet-stream;base64,"}],"bufferViews":[{"name":"bufferView_0","buffer":0,"byteLength":864,"byteOffset":0,"byteStride":12,"target":34962},{"name":"bufferView_1","buffer":0,"byteLength":840,"byteOffset":864,"target":34963}],"materials":[{"name":"default","pbrMetallicRoughness":{"baseColorFactor":[0.5,0.5,0.5,1],"metallicFactor":0,"roughnessFactor":1},"emissiveFactor":[0,0,0],"alphaMode":"OPAQUE","doubleSided":false}],"meshes":[{"name":"Node-Mesh","primitives":[{"attributes":{"POSITION":0},"indices":1,"material":0,"mode":4}]}],"nodes":[{"name":"Node","mesh":0}],"scene":0,"scenes":[{"nodes":[0]}]}